<svg id="Layer_1" data-name="Layer 1" xmlns="http://www.w3.org/2000/svg" viewBox="0 0 1000 280.33"><defs><style>.cls-1{fill:#231f20;}</style></defs><title>glogo</title><path class="cls-1" d="M12.9,237.2a12.36,12.36,0,0,1,.36-3.56,8.15,8.15,0,0,1,.18-1.6,9.91,9.91,0,0,0,.18-2l3.25-14.23H233.08L228.4,237.2Zm29.19,28.45q-24.15,0-28.47-21.34H227l-4.69,21.34ZM18.31,208.74,23,187.4H77.05l-4.69,21.34Zm6.12-28.46,4.69-21.34H83.17l-4.68,21.34Zm6.13-28.45,4.68-21.34H89.3l-4.69,21.34Zm6.13-28.46L41.37,102H95.42l-4.68,21.34Zm6.12-28.45L47.5,73.58h54.05L96.87,94.92Zm6.13-28.46,3.24-14.22a5.18,5.18,0,0,1,.36-2,4.29,4.29,0,0,0,.36-1.6c.24-.47.48-1,.72-1.6s.48-1.25.72-2h215.5l-4.68,21.34ZM58,38q14.4-21.34,37.83-21.34H276L271.28,38Zm62.7,113.82,4.68-21.34H251.46l-4.68,21.34Zm6.13-28.46L131.46,102H257.59l-4.69,21.34Zm53.69,85.37,4.68-21.34h54.06l-4.69,21.34Zm6.13-28.46,4.68-21.34h54.06l-4.69,21.34Z"/><path class="cls-1" d="M469.12,244.31q-13.69,21.35-37.84,21.34H251.1l4.68-21.34Zm5.76-14.23a5.18,5.18,0,0,1-.36,2c-.24.59-.48,1.13-.72,1.6a1.44,1.44,0,0,1-.36,1.07,3.9,3.9,0,0,1-.18,1.24,9.81,9.81,0,0,1-.54,1.25H257.22l4.69-21.35H478.13ZM263.35,208.74,268,187.4h54l-4.68,21.34Zm6.13-28.46,4.68-21.34h54.06l-4.69,21.34Zm6.12-28.45,4.69-21.34h54l-4.68,21.34Zm6.13-28.46L286.41,102h54.06l-4.69,21.34Zm6.13-28.45,4.68-21.34h54l-4.68,21.34ZM294,66.46l4.69-21.34H514.16a9.91,9.91,0,0,1-.18,2,8.15,8.15,0,0,0-.18,1.6,8.07,8.07,0,0,1-.18,1.6,9.91,9.91,0,0,0-.18,2L510.2,66.46ZM300.11,38l4.68-21.34H485q24.15,0,28.47,21.34Zm125.4,170.73,4.69-21.34h54.05l-4.68,21.34Zm6.13-28.46,4.69-21.34h54.05l-4.69,21.34Zm6.13-28.45,4.68-21.34h54.06l-4.69,21.34Zm6.12-28.46L448.58,102h54.05L498,123.37ZM450,94.92l4.68-21.34h54.06l-4.69,21.34Z"/><path class="cls-1" d="M714.16,244.31q-13.7,21.35-37.84,21.34H496.14l4.69-21.34Zm5.77-14.23a5.38,5.38,0,0,1-.36,2c-.24.59-.49,1.13-.72,1.6a1.48,1.48,0,0,1-.36,1.07,4.21,4.21,0,0,1-.18,1.24c-.13.36-.31.77-.54,1.25H502.27L507,215.85H723.17ZM508.4,208.74l4.68-21.34h54l-4.68,21.34Zm6.12-28.46,4.69-21.34h54l-4.68,21.34Zm6.13-28.45,4.68-21.34h54.06l-4.69,21.34Zm6.12-28.46L531.46,102h54l-4.68,21.34Zm6.13-28.45,4.68-21.34h54.06L587,94.92ZM539,66.46l4.68-21.34h215.5a9.91,9.91,0,0,1-.18,2,7.46,7.46,0,0,0-.18,1.6,8.07,8.07,0,0,1-.18,1.6,9.21,9.21,0,0,0-.18,2l-3.25,14.22ZM545.15,38l4.69-21.34H730q24.13,0,28.47,21.34ZM670.56,208.74l4.68-21.34H729.3l-4.69,21.34Zm6.12-28.46,4.69-21.34h54l-4.68,21.34Zm6.13-28.45,4.69-21.34h54l-4.68,21.34Zm6.13-28.46L693.62,102h54.06L743,123.37Zm6.12-28.45,4.69-21.34h54l-4.68,21.34Z"/><path class="cls-1" d="M747,237.2a12.36,12.36,0,0,1,.36-3.56,8.15,8.15,0,0,1,.18-1.6,9.91,9.91,0,0,0,.18-2l3.25-14.23h198.2l-4.69,21.35Zm29.19,28.45q-24.15,0-28.47-21.34H943l-4.68,21.34Zm-23.78-56.91L757,187.4H811.1l-4.69,21.34Zm6.12-28.46,4.69-21.34h54.05l-4.68,21.34Zm6.13-28.45,4.68-21.34h54.06l-4.68,21.34Zm6.13-28.46L775.42,102h54.06l-4.69,21.34Zm6.12-28.45,4.69-21.34H835.6l-4.68,21.34ZM783,66.46l3.24-14.22a5.18,5.18,0,0,1,.36-2,4.29,4.29,0,0,0,.36-1.6c.24-.47.48-1,.72-1.6s.48-1.25.72-2H985.87l-4.68,21.34ZM792,38q14.4-21.34,37.84-21.34H992L987.32,38Z"/></svg>